<mxfile host="app.diagrams.net" modified="2023-03-31T07:56:38.756Z" agent="Mozilla/5.0 (Macintosh; Intel Mac OS X 10_15_7) AppleWebKit/605.1.15 (KHTML, like Gecko) Version/16.2 Safari/605.1.15" etag="-BABTtAjazFB3_qEQs4g" version="21.1.2" type="github">
  <diagram name="Page-1" id="GfTcdCsTiwDE9RxUzX4j">
    <mxGraphModel dx="2901" dy="1187" grid="1" gridSize="10" guides="1" tooltips="1" connect="1" arrows="1" fold="1" page="1" pageScale="1" pageWidth="827" pageHeight="1169" math="0" shadow="0">
      <root>
        <mxCell id="0" />
        <mxCell id="1" parent="0" />
        <mxCell id="bqbvmw0OYoMIhF3BYVu5-3" style="edgeStyle=orthogonalEdgeStyle;rounded=0;orthogonalLoop=1;jettySize=auto;html=1;exitX=0.5;exitY=1;exitDx=0;exitDy=0;" parent="1" source="bqbvmw0OYoMIhF3BYVu5-1" edge="1">
          <mxGeometry relative="1" as="geometry">
            <mxPoint x="374" y="210" as="targetPoint" />
          </mxGeometry>
        </mxCell>
        <mxCell id="bqbvmw0OYoMIhF3BYVu5-1" value="1" style="ellipse;whiteSpace=wrap;html=1;aspect=fixed;" parent="1" vertex="1">
          <mxGeometry x="334" y="60" width="80" height="80" as="geometry" />
        </mxCell>
        <mxCell id="bqbvmw0OYoMIhF3BYVu5-8" style="rounded=0;orthogonalLoop=1;jettySize=auto;html=1;exitX=0.5;exitY=1;exitDx=0;exitDy=0;" parent="1" source="bqbvmw0OYoMIhF3BYVu5-4" target="bqbvmw0OYoMIhF3BYVu5-6" edge="1">
          <mxGeometry relative="1" as="geometry" />
        </mxCell>
        <mxCell id="bqbvmw0OYoMIhF3BYVu5-11" style="edgeStyle=orthogonalEdgeStyle;rounded=0;orthogonalLoop=1;jettySize=auto;html=1;exitX=0.5;exitY=1;exitDx=0;exitDy=0;" parent="1" source="bqbvmw0OYoMIhF3BYVu5-4" target="bqbvmw0OYoMIhF3BYVu5-9" edge="1">
          <mxGeometry relative="1" as="geometry" />
        </mxCell>
        <mxCell id="bqbvmw0OYoMIhF3BYVu5-4" value="2" style="ellipse;whiteSpace=wrap;html=1;aspect=fixed;" parent="1" vertex="1">
          <mxGeometry x="334" y="210" width="80" height="80" as="geometry" />
        </mxCell>
        <mxCell id="bqbvmw0OYoMIhF3BYVu5-10" style="rounded=0;orthogonalLoop=1;jettySize=auto;html=1;exitX=1;exitY=1;exitDx=0;exitDy=0;entryX=0;entryY=0.5;entryDx=0;entryDy=0;" parent="1" source="bqbvmw0OYoMIhF3BYVu5-6" target="bqbvmw0OYoMIhF3BYVu5-9" edge="1">
          <mxGeometry relative="1" as="geometry" />
        </mxCell>
        <mxCell id="bqbvmw0OYoMIhF3BYVu5-6" value="3" style="ellipse;whiteSpace=wrap;html=1;aspect=fixed;" parent="1" vertex="1">
          <mxGeometry x="210" y="320" width="80" height="80" as="geometry" />
        </mxCell>
        <mxCell id="bqbvmw0OYoMIhF3BYVu5-24" style="rounded=0;orthogonalLoop=1;jettySize=auto;html=1;exitX=0.5;exitY=1;exitDx=0;exitDy=0;entryX=1.013;entryY=0.35;entryDx=0;entryDy=0;entryPerimeter=0;" parent="1" source="bqbvmw0OYoMIhF3BYVu5-9" target="bqbvmw0OYoMIhF3BYVu5-12" edge="1">
          <mxGeometry relative="1" as="geometry" />
        </mxCell>
        <mxCell id="bqbvmw0OYoMIhF3BYVu5-25" style="edgeStyle=orthogonalEdgeStyle;rounded=0;orthogonalLoop=1;jettySize=auto;html=1;exitX=0.5;exitY=1;exitDx=0;exitDy=0;entryX=0.5;entryY=0;entryDx=0;entryDy=0;" parent="1" source="bqbvmw0OYoMIhF3BYVu5-9" target="bqbvmw0OYoMIhF3BYVu5-13" edge="1">
          <mxGeometry relative="1" as="geometry" />
        </mxCell>
        <mxCell id="bqbvmw0OYoMIhF3BYVu5-9" value="4" style="ellipse;whiteSpace=wrap;html=1;aspect=fixed;" parent="1" vertex="1">
          <mxGeometry x="334" y="380" width="80" height="80" as="geometry" />
        </mxCell>
        <mxCell id="bqbvmw0OYoMIhF3BYVu5-26" style="rounded=0;orthogonalLoop=1;jettySize=auto;html=1;exitX=1;exitY=1;exitDx=0;exitDy=0;" parent="1" source="bqbvmw0OYoMIhF3BYVu5-12" target="bqbvmw0OYoMIhF3BYVu5-13" edge="1">
          <mxGeometry relative="1" as="geometry" />
        </mxCell>
        <mxCell id="bqbvmw0OYoMIhF3BYVu5-12" value="" style="ellipse;whiteSpace=wrap;html=1;aspect=fixed;" parent="1" vertex="1">
          <mxGeometry x="210" y="470" width="80" height="80" as="geometry" />
        </mxCell>
        <mxCell id="bqbvmw0OYoMIhF3BYVu5-27" style="rounded=0;orthogonalLoop=1;jettySize=auto;html=1;exitX=0.5;exitY=1;exitDx=0;exitDy=0;" parent="1" source="bqbvmw0OYoMIhF3BYVu5-13" target="bqbvmw0OYoMIhF3BYVu5-14" edge="1">
          <mxGeometry relative="1" as="geometry" />
        </mxCell>
        <mxCell id="bqbvmw0OYoMIhF3BYVu5-28" style="edgeStyle=orthogonalEdgeStyle;rounded=0;orthogonalLoop=1;jettySize=auto;html=1;exitX=0.5;exitY=1;exitDx=0;exitDy=0;" parent="1" source="bqbvmw0OYoMIhF3BYVu5-13" target="bqbvmw0OYoMIhF3BYVu5-15" edge="1">
          <mxGeometry relative="1" as="geometry" />
        </mxCell>
        <mxCell id="bqbvmw0OYoMIhF3BYVu5-13" value="" style="ellipse;whiteSpace=wrap;html=1;aspect=fixed;" parent="1" vertex="1">
          <mxGeometry x="334" y="540" width="80" height="80" as="geometry" />
        </mxCell>
        <mxCell id="bqbvmw0OYoMIhF3BYVu5-29" style="rounded=0;orthogonalLoop=1;jettySize=auto;html=1;exitX=1;exitY=0.5;exitDx=0;exitDy=0;" parent="1" source="bqbvmw0OYoMIhF3BYVu5-14" target="bqbvmw0OYoMIhF3BYVu5-15" edge="1">
          <mxGeometry relative="1" as="geometry" />
        </mxCell>
        <mxCell id="bqbvmw0OYoMIhF3BYVu5-14" value="" style="ellipse;whiteSpace=wrap;html=1;aspect=fixed;" parent="1" vertex="1">
          <mxGeometry x="210" y="610" width="80" height="80" as="geometry" />
        </mxCell>
        <mxCell id="bqbvmw0OYoMIhF3BYVu5-30" style="rounded=0;orthogonalLoop=1;jettySize=auto;html=1;exitX=0.5;exitY=1;exitDx=0;exitDy=0;entryX=1.013;entryY=0.3;entryDx=0;entryDy=0;entryPerimeter=0;" parent="1" source="bqbvmw0OYoMIhF3BYVu5-15" target="bqbvmw0OYoMIhF3BYVu5-16" edge="1">
          <mxGeometry relative="1" as="geometry" />
        </mxCell>
        <mxCell id="bqbvmw0OYoMIhF3BYVu5-31" style="rounded=0;orthogonalLoop=1;jettySize=auto;html=1;exitX=0.5;exitY=1;exitDx=0;exitDy=0;" parent="1" source="bqbvmw0OYoMIhF3BYVu5-15" target="bqbvmw0OYoMIhF3BYVu5-17" edge="1">
          <mxGeometry relative="1" as="geometry" />
        </mxCell>
        <mxCell id="bqbvmw0OYoMIhF3BYVu5-15" value="" style="ellipse;whiteSpace=wrap;html=1;aspect=fixed;" parent="1" vertex="1">
          <mxGeometry x="334" y="690" width="80" height="80" as="geometry" />
        </mxCell>
        <mxCell id="bqbvmw0OYoMIhF3BYVu5-32" style="rounded=0;orthogonalLoop=1;jettySize=auto;html=1;exitX=0.5;exitY=1;exitDx=0;exitDy=0;entryX=1;entryY=0;entryDx=0;entryDy=0;" parent="1" source="bqbvmw0OYoMIhF3BYVu5-16" target="bqbvmw0OYoMIhF3BYVu5-21" edge="1">
          <mxGeometry relative="1" as="geometry" />
        </mxCell>
        <mxCell id="bqbvmw0OYoMIhF3BYVu5-33" style="rounded=0;orthogonalLoop=1;jettySize=auto;html=1;exitX=0.5;exitY=1;exitDx=0;exitDy=0;entryX=1;entryY=0.25;entryDx=0;entryDy=0;entryPerimeter=0;" parent="1" source="bqbvmw0OYoMIhF3BYVu5-16" target="bqbvmw0OYoMIhF3BYVu5-22" edge="1">
          <mxGeometry relative="1" as="geometry" />
        </mxCell>
        <mxCell id="bqbvmw0OYoMIhF3BYVu5-34" style="rounded=0;orthogonalLoop=1;jettySize=auto;html=1;exitX=0.5;exitY=1;exitDx=0;exitDy=0;entryX=0.963;entryY=0.288;entryDx=0;entryDy=0;entryPerimeter=0;" parent="1" source="bqbvmw0OYoMIhF3BYVu5-16" target="bqbvmw0OYoMIhF3BYVu5-23" edge="1">
          <mxGeometry relative="1" as="geometry" />
        </mxCell>
        <mxCell id="bqbvmw0OYoMIhF3BYVu5-38" style="rounded=0;orthogonalLoop=1;jettySize=auto;html=1;exitX=0.5;exitY=1;exitDx=0;exitDy=0;entryX=0.625;entryY=0.038;entryDx=0;entryDy=0;entryPerimeter=0;" parent="1" source="bqbvmw0OYoMIhF3BYVu5-16" target="bqbvmw0OYoMIhF3BYVu5-20" edge="1">
          <mxGeometry relative="1" as="geometry" />
        </mxCell>
        <mxCell id="bqbvmw0OYoMIhF3BYVu5-16" value="" style="ellipse;whiteSpace=wrap;html=1;aspect=fixed;" parent="1" vertex="1">
          <mxGeometry x="190" y="780" width="80" height="80" as="geometry" />
        </mxCell>
        <mxCell id="bqbvmw0OYoMIhF3BYVu5-40" style="rounded=0;orthogonalLoop=1;jettySize=auto;html=1;exitX=0.5;exitY=1;exitDx=0;exitDy=0;entryX=0;entryY=0.263;entryDx=0;entryDy=0;entryPerimeter=0;" parent="1" source="bqbvmw0OYoMIhF3BYVu5-17" target="bqbvmw0OYoMIhF3BYVu5-18" edge="1">
          <mxGeometry relative="1" as="geometry" />
        </mxCell>
        <mxCell id="bqbvmw0OYoMIhF3BYVu5-41" style="rounded=0;orthogonalLoop=1;jettySize=auto;html=1;exitX=0.5;exitY=1;exitDx=0;exitDy=0;" parent="1" source="bqbvmw0OYoMIhF3BYVu5-17" target="bqbvmw0OYoMIhF3BYVu5-19" edge="1">
          <mxGeometry relative="1" as="geometry" />
        </mxCell>
        <mxCell id="bqbvmw0OYoMIhF3BYVu5-17" value="" style="ellipse;whiteSpace=wrap;html=1;aspect=fixed;" parent="1" vertex="1">
          <mxGeometry x="440" y="1140" width="80" height="80" as="geometry" />
        </mxCell>
        <mxCell id="bqbvmw0OYoMIhF3BYVu5-42" style="rounded=0;orthogonalLoop=1;jettySize=auto;html=1;exitX=0.5;exitY=1;exitDx=0;exitDy=0;entryX=1;entryY=0;entryDx=0;entryDy=0;" parent="1" source="bqbvmw0OYoMIhF3BYVu5-18" target="bqbvmw0OYoMIhF3BYVu5-19" edge="1">
          <mxGeometry relative="1" as="geometry" />
        </mxCell>
        <mxCell id="bqbvmw0OYoMIhF3BYVu5-18" value="" style="ellipse;whiteSpace=wrap;html=1;aspect=fixed;" parent="1" vertex="1">
          <mxGeometry x="560" y="1230" width="80" height="80" as="geometry" />
        </mxCell>
        <mxCell id="bqbvmw0OYoMIhF3BYVu5-43" style="edgeStyle=orthogonalEdgeStyle;orthogonalLoop=1;jettySize=auto;html=1;exitX=0.5;exitY=1;exitDx=0;exitDy=0;entryX=1;entryY=0.5;entryDx=0;entryDy=0;curved=1;" parent="1" source="bqbvmw0OYoMIhF3BYVu5-19" target="bqbvmw0OYoMIhF3BYVu5-1" edge="1">
          <mxGeometry relative="1" as="geometry">
            <mxPoint x="720" y="1340" as="targetPoint" />
            <Array as="points">
              <mxPoint x="510" y="1450" />
              <mxPoint x="730" y="1450" />
              <mxPoint x="730" y="100" />
            </Array>
          </mxGeometry>
        </mxCell>
        <mxCell id="bqbvmw0OYoMIhF3BYVu5-19" value="" style="ellipse;whiteSpace=wrap;html=1;aspect=fixed;" parent="1" vertex="1">
          <mxGeometry x="470" y="1350" width="80" height="80" as="geometry" />
        </mxCell>
        <mxCell id="bqbvmw0OYoMIhF3BYVu5-39" style="rounded=0;orthogonalLoop=1;jettySize=auto;html=1;exitX=0.5;exitY=1;exitDx=0;exitDy=0;entryX=0;entryY=0.763;entryDx=0;entryDy=0;entryPerimeter=0;" parent="1" source="bqbvmw0OYoMIhF3BYVu5-20" target="bqbvmw0OYoMIhF3BYVu5-17" edge="1">
          <mxGeometry relative="1" as="geometry" />
        </mxCell>
        <mxCell id="bqbvmw0OYoMIhF3BYVu5-20" value="" style="ellipse;whiteSpace=wrap;html=1;aspect=fixed;" parent="1" vertex="1">
          <mxGeometry x="160" y="1100" width="80" height="80" as="geometry" />
        </mxCell>
        <mxCell id="bqbvmw0OYoMIhF3BYVu5-35" style="rounded=0;orthogonalLoop=1;jettySize=auto;html=1;exitX=0.5;exitY=1;exitDx=0;exitDy=0;entryX=0;entryY=0.625;entryDx=0;entryDy=0;entryPerimeter=0;" parent="1" source="bqbvmw0OYoMIhF3BYVu5-21" target="bqbvmw0OYoMIhF3BYVu5-20" edge="1">
          <mxGeometry relative="1" as="geometry" />
        </mxCell>
        <mxCell id="bqbvmw0OYoMIhF3BYVu5-21" value="" style="ellipse;whiteSpace=wrap;html=1;aspect=fixed;" parent="1" vertex="1">
          <mxGeometry x="-150" y="880" width="80" height="80" as="geometry" />
        </mxCell>
        <mxCell id="bqbvmw0OYoMIhF3BYVu5-36" style="rounded=0;orthogonalLoop=1;jettySize=auto;html=1;exitX=0.5;exitY=1;exitDx=0;exitDy=0;entryX=-0.012;entryY=0.413;entryDx=0;entryDy=0;entryPerimeter=0;" parent="1" source="bqbvmw0OYoMIhF3BYVu5-22" target="bqbvmw0OYoMIhF3BYVu5-20" edge="1">
          <mxGeometry relative="1" as="geometry" />
        </mxCell>
        <mxCell id="bqbvmw0OYoMIhF3BYVu5-22" value="" style="ellipse;whiteSpace=wrap;html=1;aspect=fixed;" parent="1" vertex="1">
          <mxGeometry x="-10" y="910" width="80" height="80" as="geometry" />
        </mxCell>
        <mxCell id="bqbvmw0OYoMIhF3BYVu5-37" style="rounded=0;orthogonalLoop=1;jettySize=auto;html=1;exitX=0.5;exitY=1;exitDx=0;exitDy=0;entryX=0;entryY=0;entryDx=0;entryDy=0;" parent="1" source="bqbvmw0OYoMIhF3BYVu5-23" target="bqbvmw0OYoMIhF3BYVu5-20" edge="1">
          <mxGeometry relative="1" as="geometry" />
        </mxCell>
        <mxCell id="bqbvmw0OYoMIhF3BYVu5-23" value="" style="ellipse;whiteSpace=wrap;html=1;aspect=fixed;" parent="1" vertex="1">
          <mxGeometry x="110" y="950" width="80" height="80" as="geometry" />
        </mxCell>
      </root>
    </mxGraphModel>
  </diagram>
</mxfile>
